<svg width="184" height="200" viewBox="0 0 184 200" fill="none" xmlns="http://www.w3.org/2000/svg">
<path d="M37.138 159.744C42.966 166.912 50.344 175.424 50.158 185.344C36.518 186.88 21.886 181.76 13.702 170.048C9.30001 163.776 7.75001 156.672 7.44001 149.056C7.13001 140.608 7.25401 132.224 7.62601 123.776C23.622 125.76 38.316 135.296 46.934 149.376C46.934 152.576 46.934 155.776 47.12 158.912C47.43 163.456 48.05 167.936 49.352 172.224C46.872 167.488 43.4 163.136 40.176 159.232C33.604 151.04 26.846 142.976 18.228 136.96C16.74 135.936 15.376 138.368 16.864 139.392C24.862 144.896 31.062 152.256 37.138 159.744ZM110.422 80.512C114.266 99.2 116.56 118.528 115.444 137.664C114.948 146.432 111.538 155.392 105.71 161.856C100.192 168 93.682 173.248 86.242 176.704C81.716 178.816 77.004 180.032 72.044 180.8C68.076 181.44 64.294 182.4 60.45 183.616C59.272 176 61.504 168.448 64.17 161.408C65.596 157.76 67.022 154.304 67.704 150.4C67.89 149.44 68.014 148.416 68.2 147.456C77.314 143.872 85.932 136.064 96.162 137.536C97.898 137.792 98.642 135.04 96.906 134.784C86.304 133.248 78.058 140.224 68.82 144.128C69.13 142.784 69.502 141.376 69.936 140.032C74.524 126.08 85.188 115.584 96.038 106.56C97.402 105.408 95.48 103.424 94.116 104.576C82.894 113.984 72.106 124.864 67.332 139.264C66.65 141.312 66.216 143.424 65.844 145.536C65.534 145.92 65.472 146.432 65.596 146.88C65.41 148.16 65.162 149.376 64.914 150.656C64.17 154.624 62.434 158.272 61.008 162.048C58.528 168.704 56.854 175.616 57.598 182.72C52.638 176.256 50.592 168.064 49.972 159.872C49.724 156.288 49.662 152.704 49.724 149.184C49.786 148.992 49.786 148.864 49.724 148.672C49.724 147.584 49.724 146.56 49.786 145.472C49.848 140.672 49.972 135.872 51.274 131.264C53.63 123.008 58.9 115.84 64.728 109.76C70.556 103.616 77.19 98.24 84.506 94.08C88.846 91.648 93.496 89.792 97.96 87.488C102.176 85.376 106.33 82.944 110.422 80.512Z" fill="#759F25"/>
<path d="M117.862 113.344C118.606 123.328 119.412 134.272 117.366 144.128C115.692 152.448 111.538 159.872 105.834 165.888C99.944 171.968 93.062 176.96 85.312 180.224C81.096 181.952 76.818 182.976 72.292 183.68C67.642 184.448 63.178 185.664 58.714 187.264C58.156 187.456 57.66 187.264 57.35 186.88C55.242 184.576 53.568 182.08 52.204 179.392C52.824 181.76 53.072 184.256 52.824 186.816C52.762 187.84 51.832 188.288 51.15 188.16C51.088 188.16 50.964 188.224 50.84 188.224C36.518 190.08 21.142 184.704 12.214 172.736C7.75001 166.784 5.45601 159.808 4.89801 152.32C4.15401 142.784 4.46401 133.056 4.96001 123.52C4.96001 123.392 5.02201 123.264 5.02201 123.136C4.34001 122.304 4.65001 120.704 6.01401 120.832C22.32 122.304 37.386 131.072 47.12 144.576V143.616C47.244 138.816 47.554 134.016 49.042 129.408C51.708 121.216 56.978 114.112 62.806 107.968C69.006 101.44 76.136 95.68 83.948 91.392C88.226 89.088 92.69 87.232 97.03 84.992C101.618 82.624 106.082 79.936 110.546 77.312C110.856 77.12 111.166 77.056 111.476 77.12C112.034 77.12 112.592 77.376 112.716 78.144C115.196 89.664 116.994 101.44 117.862 113.344ZM115.444 137.728C116.56 118.592 114.266 99.264 110.422 80.576C106.33 83.008 102.176 85.44 97.898 87.616C93.434 89.92 88.846 91.776 84.444 94.208C77.128 98.304 70.494 103.68 64.666 109.888C58.9 115.968 53.568 123.072 51.212 131.392C49.91 136 49.786 140.8 49.724 145.6C49.724 146.624 49.724 147.712 49.662 148.8C49.724 148.992 49.724 149.184 49.662 149.312C49.662 152.896 49.662 156.48 49.91 160C50.53 168.192 52.576 176.384 57.536 182.848C56.792 175.744 58.466 168.832 60.946 162.176C62.372 158.4 64.108 154.752 64.852 150.784C65.1 149.504 65.286 148.224 65.534 147.008C65.41 146.56 65.472 146.048 65.782 145.664C66.154 143.552 66.588 141.504 67.27 139.392C72.044 124.928 82.832 114.048 94.054 104.704C95.418 103.552 97.34 105.536 95.976 106.688C85.188 115.712 74.462 126.208 69.874 140.16C69.44 141.504 69.068 142.848 68.758 144.256C77.996 140.288 86.242 133.376 96.844 134.912C98.58 135.168 97.836 137.92 96.1 137.664C85.87 136.192 77.252 144 68.138 147.584C67.952 148.544 67.828 149.568 67.642 150.528C66.96 154.432 65.534 157.888 64.108 161.536C61.38 168.576 59.148 176.064 60.388 183.744C64.17 182.528 68.014 181.568 71.982 180.928C76.88 180.16 81.654 178.944 86.18 176.832C93.558 173.376 100.13 168.128 105.648 161.984C111.538 155.456 114.948 146.432 115.444 137.728ZM50.158 185.344C50.344 175.424 42.966 166.912 37.138 159.744C31.062 152.256 24.862 144.896 16.988 139.456C15.562 138.432 16.926 136 18.352 137.024C26.97 142.976 33.728 151.104 40.3 159.296C43.462 163.2 46.934 167.552 49.476 172.288C48.236 168 47.554 163.456 47.244 158.976C47.058 155.776 46.996 152.576 47.058 149.44C38.378 135.36 23.746 125.824 7.75001 123.84C7.31601 132.224 7.19201 140.672 7.56401 149.12C7.87401 156.736 9.42401 163.84 13.826 170.112C21.886 181.76 36.518 186.88 50.158 185.344Z" fill="#436A0F"/>
<path d="M133.975 184.904C136.325 187.592 139.3 190.784 139.225 194.504C133.725 195.08 127.825 193.16 124.525 188.768C122.75 186.416 122.125 183.752 122 180.896C121.875 177.728 121.925 174.584 122.075 171.416C128.525 172.16 134.45 175.736 137.925 181.016C137.925 182.216 137.925 183.416 138 184.592C138.125 186.296 138.375 187.976 138.9 189.584C137.9 187.808 136.5 186.176 135.2 184.712C132.55 181.64 129.825 178.616 126.35 176.36C125.75 175.976 125.2 176.888 125.8 177.272C129.025 179.336 131.525 182.096 133.975 184.904ZM163.525 155.192C165.075 162.2 166 169.448 165.55 176.624C165.35 179.912 163.975 183.272 161.625 185.696C159.4 188 156.775 189.968 153.775 191.264C151.95 192.056 150.05 192.512 148.05 192.8C146.45 193.04 144.925 193.4 143.375 193.856C142.9 191 143.8 188.168 144.875 185.528C145.45 184.16 146.025 182.864 146.3 181.4C146.375 181.04 146.425 180.656 146.5 180.296C150.175 178.952 153.65 176.024 157.775 176.576C158.475 176.672 158.775 175.64 158.075 175.544C153.8 174.968 150.475 177.584 146.75 179.048C146.875 178.544 147.025 178.016 147.2 177.512C149.05 172.28 153.35 168.344 157.725 164.96C158.275 164.528 157.5 163.784 156.95 164.216C152.425 167.744 148.075 171.824 146.15 177.224C145.875 177.992 145.7 178.784 145.55 179.576C145.425 179.72 145.4 179.912 145.45 180.08C145.375 180.56 145.275 181.016 145.175 181.496C144.875 182.984 144.175 184.352 143.6 185.768C142.6 188.264 141.925 190.856 142.225 193.52C140.225 191.096 139.4 188.024 139.15 184.952C139.05 183.608 139.025 182.264 139.05 180.944C139.075 180.872 139.075 180.824 139.05 180.752C139.05 180.344 139.05 179.96 139.075 179.552C139.1 177.752 139.15 175.952 139.675 174.224C140.625 171.128 142.75 168.44 145.1 166.16C147.45 163.856 150.125 161.84 153.075 160.28C154.825 159.368 156.7 158.672 158.5 157.808C160.2 157.016 161.875 156.104 163.525 155.192Z" fill="#759F25"/>
<path d="M166.525 167.504C166.825 171.248 167.15 175.352 166.325 179.048C165.65 182.168 163.975 184.952 161.675 187.208C159.3 189.488 156.525 191.36 153.4 192.584C151.7 193.232 149.975 193.616 148.15 193.88C146.275 194.168 144.475 194.624 142.675 195.224C142.45 195.296 142.25 195.224 142.125 195.08C141.275 194.216 140.6 193.28 140.05 192.272C140.3 193.16 140.4 194.096 140.3 195.056C140.275 195.44 139.9 195.608 139.625 195.56C139.6 195.56 139.55 195.584 139.5 195.584C133.725 196.28 127.525 194.264 123.925 189.776C122.125 187.544 121.2 184.928 120.975 182.12C120.675 178.544 120.8 174.896 121 171.32C121 171.272 121.025 171.224 121.025 171.176C120.75 170.864 120.875 170.264 121.425 170.312C128 170.864 134.075 174.152 138 179.216V178.856C138.05 177.056 138.175 175.256 138.775 173.528C139.85 170.456 141.975 167.792 144.325 165.488C146.825 163.04 149.7 160.88 152.85 159.272C154.575 158.408 156.375 157.712 158.125 156.872C159.975 155.984 161.775 154.976 163.575 153.992C163.7 153.92 163.825 153.896 163.95 153.92C164.175 153.92 164.4 154.016 164.45 154.304C165.45 158.624 166.175 163.04 166.525 167.504ZM165.55 176.648C166 169.472 165.075 162.224 163.525 155.216C161.875 156.128 160.2 157.04 158.475 157.856C156.675 158.72 154.825 159.416 153.05 160.328C150.1 161.864 147.425 163.88 145.075 166.208C142.75 168.488 140.6 171.152 139.65 174.272C139.125 176 139.075 177.8 139.05 179.6C139.05 179.984 139.05 180.392 139.025 180.8C139.05 180.872 139.05 180.944 139.025 180.992C139.025 182.336 139.025 183.68 139.125 185C139.375 188.072 140.2 191.144 142.2 193.568C141.9 190.904 142.575 188.312 143.575 185.816C144.15 184.4 144.85 183.032 145.15 181.544C145.25 181.064 145.325 180.584 145.425 180.128C145.375 179.96 145.4 179.768 145.525 179.624C145.675 178.832 145.85 178.064 146.125 177.272C148.05 171.848 152.4 167.768 156.925 164.264C157.475 163.832 158.25 164.576 157.7 165.008C153.35 168.392 149.025 172.328 147.175 177.56C147 178.064 146.85 178.568 146.725 179.096C150.45 177.608 153.775 175.016 158.05 175.592C158.75 175.688 158.45 176.72 157.75 176.624C153.625 176.072 150.15 179 146.475 180.344C146.4 180.704 146.35 181.088 146.275 181.448C146 182.912 145.425 184.208 144.85 185.576C143.75 188.216 142.85 191.024 143.35 193.904C144.875 193.448 146.425 193.088 148.025 192.848C150 192.56 151.925 192.104 153.75 191.312C156.725 190.016 159.375 188.048 161.6 185.744C163.975 183.296 165.35 179.912 165.55 176.648ZM139.225 194.504C139.3 190.784 136.325 187.592 133.975 184.904C131.525 182.096 129.025 179.336 125.85 177.296C125.275 176.912 125.825 176 126.4 176.384C129.875 178.616 132.6 181.664 135.25 184.736C136.525 186.2 137.925 187.832 138.95 189.608C138.45 188 138.175 186.296 138.05 184.616C137.975 183.416 137.95 182.216 137.975 181.04C134.475 175.76 128.575 172.184 122.125 171.44C121.95 174.584 121.9 177.752 122.05 180.92C122.175 183.776 122.8 186.44 124.575 188.792C127.825 193.16 133.725 195.08 139.225 194.504Z" fill="#436A0F"/>
<path d="M41.725 63.6385C43.23 68.6845 44.1575 73.861 44.105 79.0665C44.0875 80.328 44.1225 81.662 43.58 82.851C43.1425 83.7935 42.3725 84.62 41.4625 85.287C39.5025 86.6935 37 87.3605 34.4975 87.81C31.5225 88.3465 28.4775 88.6945 25.6075 89.5355C25.7475 87.4765 26.5175 85.49 27.48 83.547C30.56 83.286 33.535 82.532 36.2825 81.2995C36.7725 81.082 36.335 80.444 35.845 80.676C33.36 81.7925 30.6825 82.503 27.8825 82.7785C28.6 81.4155 29.3875 80.0815 30.07 78.762C30.175 78.5735 30.2625 78.385 30.3675 78.1965C31.82 78.298 33.2025 77.9355 34.48 77.37C35.705 76.819 37.035 76.152 37.9625 75.2675C38.33 74.9195 37.7175 74.3975 37.35 74.76C36.5275 75.543 35.39 76.1085 34.3225 76.616C33.2025 77.138 32.0125 77.5005 30.7525 77.486C30.98 77.0655 31.2075 76.645 31.4875 76.239C32.0475 75.3835 32.8525 74.673 33.64 73.9625C35.2675 72.498 36.895 71.019 38.645 69.656C39.0475 69.337 38.435 68.815 38.0325 69.1485C36.2125 70.584 34.4975 72.121 32.8 73.658C31.995 74.3395 31.2425 75.05 30.7 75.862C30.5425 76.094 30.4025 76.326 30.2625 76.558C30.175 75.9345 30.21 75.282 30.21 74.6875C30.1925 73.716 30.1925 72.7445 30.21 71.773C30.21 71.309 29.335 71.309 29.335 71.773C29.3175 72.933 29.3175 74.0785 29.3525 75.2385C29.37 76.0505 29.37 76.8625 29.7025 77.6165C29.5275 77.9645 29.3525 78.298 29.1775 78.6315C28.4775 79.9365 27.725 81.2705 27.025 82.619C25.2925 81.14 24.1025 79.313 23.5425 77.2975C23.42 76.848 22.5625 77.0365 22.7025 77.486C23.3325 79.7045 24.68 81.7055 26.6225 83.3005C26.6225 83.3295 26.64 83.3585 26.64 83.373C25.695 85.287 24.9425 87.2445 24.7675 89.2745C21.1275 85.49 18.9925 79.9945 20.725 75.2675C22.5625 70.2215 29.16 68.8295 34.41 67.1765C37.07 66.3355 39.695 65.306 41.725 63.6385Z" fill="#759F25"/>
<path d="M44.5425 72.353C44.9275 75.1515 45.155 78.0225 44.9275 80.8355C44.7525 83.025 43.615 84.823 41.4975 86.1715C36.825 89.1295 30.42 88.709 25.1175 90.449C25.0825 90.4635 25.03 90.478 24.9775 90.478H24.925C24.785 90.478 24.68 90.42 24.61 90.333C22.3 88.0855 20.6375 85.4175 19.8325 82.532C19.1325 80.038 18.9575 77.283 19.9375 74.8325C20.8475 72.5415 22.8075 70.8015 25.2575 69.569C30.49 66.9155 37.42 66.5965 41.6375 62.6235C41.935 62.348 42.3725 62.5945 42.3725 62.8845C43.37 66.002 44.105 69.163 44.5425 72.353ZM44.1225 79.0665C44.1575 73.861 43.2475 68.6845 41.7425 63.6385C39.7125 65.306 37.0875 66.3355 34.4275 67.1765C29.1425 68.8295 22.5625 70.2215 20.725 75.2675C18.9925 79.9945 21.145 85.49 24.75 89.3035C24.925 87.259 25.695 85.3015 26.6225 83.402C26.605 83.373 26.605 83.3585 26.605 83.3295C24.6625 81.7345 23.2975 79.7335 22.685 77.515C22.5625 77.0655 23.4025 76.8625 23.525 77.3265C24.1025 79.342 25.2925 81.169 27.0075 82.648C27.7075 81.2995 28.4775 79.9655 29.16 78.6605C29.335 78.327 29.51 77.979 29.685 77.6455C29.3525 76.877 29.3525 76.0795 29.335 75.2675C29.3 74.1075 29.3 72.962 29.3175 71.802C29.3175 71.338 30.1925 71.338 30.1925 71.802C30.175 72.7735 30.175 73.745 30.1925 74.7165C30.21 75.311 30.1575 75.9635 30.245 76.587C30.385 76.355 30.525 76.1085 30.6825 75.891C31.225 75.0645 31.9775 74.3685 32.7475 73.6725C34.445 72.1355 36.1425 70.5985 37.98 69.163C38.3825 68.844 39.0125 69.3515 38.5925 69.6705C36.8425 71.048 35.215 72.5125 33.5875 73.977C32.8 74.6875 31.995 75.398 31.435 76.2535C31.1725 76.6595 30.9275 77.08 30.7 77.5005C31.9775 77.515 33.15 77.167 34.27 76.6305C35.3375 76.123 36.4925 75.543 37.2975 74.7745C37.665 74.4265 38.2775 74.934 37.91 75.282C36.9825 76.1665 35.6525 76.8335 34.4275 77.3845C33.15 77.95 31.7675 78.3125 30.315 78.211C30.21 78.3995 30.1225 78.588 30.0175 78.7765C29.3175 80.096 28.53 81.43 27.83 82.793C30.63 82.5175 33.3075 81.807 35.7925 80.6905C36.2825 80.473 36.72 81.0965 36.23 81.314C33.5 82.5465 30.525 83.3005 27.4275 83.5615C26.465 85.49 25.695 87.491 25.555 89.55C28.425 88.6945 31.47 88.361 34.445 87.8245C36.9475 87.375 39.45 86.708 41.41 85.3015C42.3375 84.6345 43.1075 83.8225 43.5275 82.8655C44.1225 81.6475 44.105 80.328 44.1225 79.0665Z" fill="#436A0F"/>
<path d="M111.425 3.22052C113.79 13.1385 115.248 23.313 115.165 33.5445C115.138 36.024 115.193 38.646 114.34 40.983C113.653 42.8355 112.443 44.46 111.013 45.771C107.933 48.5355 104 49.8465 100.068 50.73C95.3925 51.7845 90.6075 52.4685 86.0975 54.1215C86.3175 50.0745 87.5275 46.17 89.04 42.351C93.88 41.838 98.555 40.356 102.873 37.9335C103.643 37.506 102.955 36.252 102.185 36.708C98.28 38.9025 94.0725 40.299 89.6725 40.8405C90.8 38.1615 92.0375 35.5395 93.11 32.946C93.275 32.5755 93.4125 32.205 93.5775 31.8345C95.86 32.034 98.0325 31.3215 100.04 30.21C101.965 29.127 104.055 27.816 105.513 26.0775C106.09 25.3935 105.128 24.3675 104.55 25.08C103.258 26.619 101.47 27.7305 99.7925 28.728C98.0325 29.754 96.1625 30.4665 94.1825 30.438C94.54 29.6115 94.8975 28.785 95.3375 27.987C96.2175 26.3055 97.4825 24.909 98.72 23.5125C101.278 20.634 103.835 17.727 106.585 15.048C107.218 14.421 106.255 13.395 105.623 14.0505C102.763 16.872 100.068 19.893 97.4 22.914C96.135 24.2535 94.9525 25.65 94.1 27.246C93.8525 27.702 93.6325 28.158 93.4125 28.614C93.275 27.3885 93.33 26.106 93.33 24.9375C93.3025 23.028 93.3025 21.1185 93.33 19.209C93.33 18.297 91.955 18.297 91.955 19.209C91.9275 21.489 91.9275 23.7405 91.9825 26.0205C92.01 27.6165 92.01 29.2125 92.5325 30.6945C92.2575 31.3785 91.9825 32.034 91.7075 32.6895C90.6075 35.2545 89.425 37.8765 88.325 40.527C85.6025 37.62 83.7325 34.029 82.8525 30.0675C82.66 29.184 81.3125 29.5545 81.5325 30.438C82.5225 34.7985 84.64 38.7315 87.6925 41.8665C87.6925 41.9235 87.72 41.9805 87.72 42.009C86.235 45.771 85.0525 49.6185 84.7775 53.6085C79.0575 46.17 75.7025 35.3685 78.425 26.0775C81.3125 16.1595 91.68 13.4235 99.93 10.1745C104.11 8.52152 108.235 6.49802 111.425 3.22052Z" fill="#759F25"/>
<path d="M115.852 20.349C116.457 25.8495 116.815 31.4925 116.457 37.0215C116.182 41.325 114.395 44.859 111.067 47.5095C103.725 53.3235 93.66 52.497 85.3275 55.917C85.2725 55.9455 85.19 55.974 85.1075 55.974H85.025C84.805 55.974 84.64 55.86 84.53 55.689C80.9 51.2715 78.2875 46.0275 77.0225 40.356C75.9225 35.454 75.6475 30.039 77.1875 25.2225C78.6175 20.7195 81.6975 17.2995 85.5475 14.877C93.77 9.66152 104.66 9.03452 111.287 1.22552C111.755 0.684021 112.442 1.16852 112.442 1.73852C114.01 7.86602 115.165 14.079 115.852 20.349ZM115.192 33.5445C115.247 23.313 113.817 13.1385 111.452 3.22052C108.262 6.49802 104.137 8.52152 99.9575 10.1745C91.6525 13.4235 81.3125 16.1595 78.425 26.0775C75.7025 35.3685 79.085 46.17 84.75 53.6655C85.025 49.647 86.235 45.7995 87.6925 42.066C87.665 42.009 87.665 41.9805 87.665 41.9235C84.6125 38.7885 82.4675 34.8555 81.505 30.495C81.3125 29.6115 82.6325 29.2125 82.825 30.1245C83.7325 34.086 85.6025 37.677 88.2975 40.584C89.3975 37.9335 90.6075 35.3115 91.68 32.7465C91.955 32.091 92.23 31.407 92.505 30.7515C91.9825 29.241 91.9825 27.6735 91.955 26.0775C91.9 23.7975 91.9 21.546 91.9275 19.266C91.9275 18.354 93.3025 18.354 93.3025 19.266C93.275 21.1755 93.275 23.085 93.3025 24.9945C93.33 26.163 93.2475 27.4455 93.385 28.671C93.605 28.215 93.825 27.7305 94.0725 27.303C94.925 25.6785 96.1075 24.3105 97.3175 22.9425C99.985 19.9215 102.652 16.9005 105.54 14.079C106.172 13.452 107.162 14.4495 106.502 15.0765C103.752 17.784 101.195 20.6625 98.6375 23.541C97.4 24.9375 96.135 26.334 95.255 28.0155C94.8425 28.8135 94.4575 29.64 94.1 30.4665C96.1075 30.495 97.95 29.811 99.71 28.7565C101.387 27.759 103.202 26.619 104.467 25.1085C105.045 24.4245 106.007 25.422 105.43 26.106C103.972 27.8445 101.882 29.1555 99.9575 30.2385C97.95 31.35 95.7775 32.0625 93.495 31.863C93.33 32.2335 93.1925 32.604 93.0275 32.9745C91.9275 35.568 90.69 38.19 89.59 40.869C93.99 40.3275 98.1975 38.931 102.102 36.7365C102.872 36.309 103.56 37.5345 102.79 37.962C98.5 40.3845 93.825 41.8665 88.9575 42.3795C87.445 46.17 86.235 50.103 86.015 54.15C90.525 52.4685 95.31 51.813 99.985 50.7585C103.917 49.875 107.85 48.564 110.93 45.7995C112.387 44.4885 113.597 42.8925 114.257 41.0115C115.192 38.6175 115.165 36.024 115.192 33.5445Z" fill="#436A0F"/>
<path d="M172.87 64.6555C174.676 72.8335 175.789 81.223 175.726 89.6595C175.705 91.704 175.747 93.866 175.096 95.793C174.571 97.3205 173.647 98.66 172.555 99.741C170.203 102.021 167.2 103.102 164.197 103.83C160.627 104.7 156.973 105.264 153.529 106.627C153.697 103.29 154.621 100.07 155.776 96.921C159.472 96.498 163.042 95.276 166.339 93.2785C166.927 92.926 166.402 91.892 165.814 92.268C162.832 94.0775 159.619 95.229 156.259 95.6755C157.12 93.4665 158.065 91.3045 158.884 89.166C159.01 88.8605 159.115 88.555 159.241 88.2495C160.984 88.414 162.643 87.8265 164.176 86.91C165.646 86.017 167.242 84.936 168.355 83.5025C168.796 82.9385 168.061 82.0925 167.62 82.68C166.633 83.949 165.268 84.8655 163.987 85.688C162.643 86.534 161.215 87.1215 159.703 87.098C159.976 86.4165 160.249 85.735 160.585 85.077C161.257 83.6905 162.223 82.539 163.168 81.3875C165.121 79.014 167.074 76.617 169.174 74.408C169.657 73.891 168.922 73.045 168.439 73.5855C166.255 75.912 164.197 78.403 162.16 80.894C161.194 81.9985 160.291 83.15 159.64 84.466C159.451 84.842 159.283 85.218 159.115 85.594C159.01 84.5835 159.052 83.526 159.052 82.5625C159.031 80.988 159.031 79.4135 159.052 77.839C159.052 77.087 158.002 77.087 158.002 77.839C157.981 79.719 157.981 81.5755 158.023 83.4555C158.044 84.7715 158.044 86.0875 158.443 87.3095C158.233 87.8735 158.023 88.414 157.813 88.9545C156.973 91.0695 156.07 93.2315 155.23 95.417C153.151 93.02 151.723 90.059 151.051 86.7925C150.904 86.064 149.875 86.3695 150.043 87.098C150.799 90.6935 152.416 93.9365 154.747 96.5215C154.747 96.5685 154.768 96.6155 154.768 96.639C153.634 99.741 152.731 102.914 152.521 106.204C148.153 100.07 145.591 91.1635 147.67 83.5025C149.875 75.3245 157.792 73.0685 164.092 70.3895C167.284 69.0265 170.434 67.358 172.87 64.6555Z" fill="#759F25"/>
<path d="M176.251 78.779C176.713 83.3145 176.986 87.9675 176.713 92.5265C176.503 96.075 175.138 98.989 172.597 101.174C166.99 105.968 159.304 105.287 152.941 108.107C152.899 108.13 152.836 108.154 152.773 108.154H152.71C152.542 108.154 152.416 108.06 152.332 107.919C149.56 104.276 147.565 99.9525 146.599 95.276C145.759 91.234 145.549 86.769 146.725 82.7975C147.817 79.0845 150.169 76.2645 153.109 74.267C159.388 69.9665 167.704 69.4495 172.765 63.0105C173.122 62.564 173.647 62.9635 173.647 63.4335C174.844 68.486 175.726 73.609 176.251 78.779ZM175.747 89.6595C175.789 81.223 174.697 72.8335 172.891 64.6555C170.455 67.358 167.305 69.0265 164.113 70.3895C157.771 73.0685 149.875 75.3245 147.67 83.5025C145.591 91.1635 148.174 100.07 152.5 106.25C152.71 102.937 153.634 99.7645 154.747 96.686C154.726 96.639 154.726 96.6155 154.726 96.5685C152.395 93.9835 150.757 90.7405 150.022 87.145C149.875 86.4165 150.883 86.0875 151.03 86.8395C151.723 90.106 153.151 93.067 155.209 95.464C156.049 93.2785 156.973 91.1165 157.792 89.0015C158.002 88.461 158.212 87.897 158.422 87.3565C158.023 86.111 158.023 84.8185 158.002 83.5025C157.96 81.6225 157.96 79.766 157.981 77.886C157.981 77.134 159.031 77.134 159.031 77.886C159.01 79.4605 159.01 81.035 159.031 82.6095C159.052 83.573 158.989 84.6305 159.094 85.641C159.262 85.265 159.43 84.8655 159.619 84.513C160.27 83.1735 161.173 82.0455 162.097 80.9175C164.134 78.4265 166.171 75.9355 168.376 73.609C168.859 73.092 169.615 73.9145 169.111 74.4315C167.011 76.664 165.058 79.0375 163.105 81.411C162.16 82.5625 161.194 83.714 160.522 85.1005C160.207 85.7585 159.913 86.44 159.64 87.1215C161.173 87.145 162.58 86.581 163.924 85.7115C165.205 84.889 166.591 83.949 167.557 82.7035C167.998 82.1395 168.733 82.962 168.292 83.526C167.179 84.9595 165.583 86.0405 164.113 86.9335C162.58 87.85 160.921 88.4375 159.178 88.273C159.052 88.5785 158.947 88.884 158.821 89.1895C157.981 91.328 157.036 93.49 156.196 95.699C159.556 95.2525 162.769 94.101 165.751 92.2915C166.339 91.939 166.864 92.9495 166.276 93.302C163 95.2995 159.43 96.5215 155.713 96.9445C154.558 100.07 153.634 103.313 153.466 106.65C156.91 105.263 160.564 104.723 164.134 103.853C167.137 103.125 170.14 102.044 172.492 99.7645C173.605 98.6835 174.529 97.3675 175.033 95.8165C175.747 93.8425 175.726 91.704 175.747 89.6595Z" fill="#436A0F"/>
</svg>
