<svg width="98" height="95" viewBox="0 0 98 95" fill="none" xmlns="http://www.w3.org/2000/svg">
<path d="M29.351 65.1225C33.957 70.4425 39.788 76.76 39.641 84.1225C28.861 85.2625 17.297 81.4625 10.829 72.77C7.35001 68.115 6.12501 62.8425 5.88001 57.19C5.63501 50.92 5.73301 44.6975 6.02701 38.4275C18.669 39.9 30.282 46.9775 37.093 57.4275C37.093 59.8025 37.093 62.1775 37.24 64.505C37.485 67.8775 37.975 71.2025 39.004 74.385C37.044 70.87 34.3 67.64 31.752 64.7425C26.558 58.6625 21.217 52.6775 14.406 48.2125C13.23 47.4525 12.152 49.2575 13.328 50.0175C19.649 54.1025 24.549 59.565 29.351 65.1225ZM87.269 6.3175C90.307 20.1875 92.12 34.5325 91.238 48.735C90.846 55.2425 88.151 61.8925 83.545 66.69C79.184 71.25 74.039 75.145 68.159 77.71C64.582 79.2775 60.858 80.18 56.938 80.75C53.802 81.225 50.813 81.9375 47.775 82.84C46.844 77.1875 48.608 71.5825 50.715 66.3575C51.842 63.65 52.969 61.085 53.508 58.1875C53.655 57.475 53.753 56.715 53.9 56.0025C61.103 53.3425 67.914 47.5475 75.999 48.64C77.371 48.83 77.959 46.7875 76.587 46.5975C68.208 45.4575 61.691 50.635 54.39 53.5325C54.635 52.535 54.929 51.49 55.272 50.4925C58.898 40.1375 67.326 32.3475 75.901 25.65C76.979 24.795 75.46 23.3225 74.382 24.1775C65.513 31.16 56.987 39.235 53.214 49.9225C52.675 51.4425 52.332 53.01 52.038 54.5775C51.793 54.8625 51.744 55.2425 51.842 55.575C51.695 56.525 51.499 57.4275 51.303 58.3775C50.715 61.3225 49.343 64.03 48.216 66.8325C46.256 71.7725 44.933 76.9025 45.521 82.175C41.601 77.3775 39.984 71.2975 39.494 65.2175C39.298 62.5575 39.249 59.8975 39.298 57.285C39.347 57.1425 39.347 57.0475 39.298 56.905C39.298 56.0975 39.298 55.3375 39.347 54.53C39.396 50.9675 39.494 47.405 40.523 43.985C42.385 37.8575 46.55 32.5375 51.156 28.025C55.762 23.465 61.005 19.475 66.787 16.3875C70.217 14.5825 73.892 13.205 77.42 11.495C80.752 9.9275 84.035 8.1225 87.269 6.3175Z" fill="#759F25"/>
<path d="M93.149 30.685C93.737 38.095 94.374 46.2175 92.757 53.5325C91.434 59.7075 88.151 65.2175 83.643 69.6825C78.988 74.195 73.549 77.9 67.424 80.3225C64.092 81.605 60.711 82.365 57.134 82.8875C53.459 83.4575 49.931 84.36 46.403 85.5475C45.962 85.69 45.57 85.5475 45.325 85.2625C43.659 83.5525 42.336 81.7 41.258 79.705C41.748 81.4625 41.944 83.315 41.748 85.215C41.699 85.975 40.964 86.3075 40.425 86.2125C40.376 86.2125 40.278 86.26 40.18 86.26C28.861 87.6375 16.709 83.6475 9.65302 74.765C6.12502 70.3475 4.31202 65.17 3.87102 59.6125C3.28302 52.535 3.52802 45.315 3.92002 38.2375C3.92002 38.1425 3.96902 38.0475 3.96902 37.9525C3.43002 37.335 3.67502 36.1475 4.75302 36.2425C17.64 37.335 29.547 43.8425 37.24 53.865V53.1525C37.338 49.59 37.583 46.0275 38.759 42.6075C40.866 36.5275 45.031 31.255 49.637 26.695C54.537 21.85 60.172 17.575 66.346 14.3925C69.727 12.6825 73.255 11.305 76.685 9.64249C80.311 7.88499 83.839 5.88999 87.367 3.94249C87.612 3.79999 87.857 3.75249 88.102 3.79999C88.543 3.79999 88.984 3.98999 89.082 4.55999C91.042 13.11 92.463 21.85 93.149 30.685ZM91.238 48.7825C92.12 34.58 90.307 20.235 87.269 6.36499C84.035 8.16999 80.752 9.97499 77.371 11.59C73.843 13.3 70.217 14.6775 66.738 16.4825C60.956 19.5225 55.713 23.5125 51.107 28.12C46.55 32.6325 42.336 37.905 40.474 44.08C39.445 47.5 39.347 51.0625 39.298 54.625C39.298 55.385 39.298 56.1925 39.249 57C39.298 57.1425 39.298 57.285 39.249 57.38C39.249 60.04 39.249 62.7 39.445 65.3125C39.935 71.3925 41.552 77.4725 45.472 82.27C44.884 76.9975 46.207 71.8675 48.167 66.9275C49.294 64.125 50.666 61.4175 51.254 58.4725C51.45 57.5225 51.597 56.5725 51.793 55.67C51.695 55.3375 51.744 54.9575 51.989 54.6725C52.283 53.105 52.626 51.585 53.165 50.0175C56.938 39.2825 65.464 31.2075 74.333 24.2725C75.411 23.4175 76.93 24.89 75.852 25.745C67.326 32.4425 58.849 40.2325 55.223 50.5875C54.88 51.585 54.586 52.5825 54.341 53.6275C61.642 50.6825 68.159 45.5525 76.538 46.6925C77.91 46.8825 77.322 48.925 75.95 48.735C67.865 47.6425 61.054 53.4375 53.851 56.0975C53.704 56.81 53.606 57.57 53.459 58.2825C52.92 61.18 51.793 63.745 50.666 66.4525C48.51 71.6775 46.746 77.235 47.726 82.935C50.715 82.0325 53.753 81.32 56.889 80.845C60.76 80.275 64.533 79.3725 68.11 77.805C73.941 75.24 79.135 71.345 83.496 66.785C88.151 61.94 90.846 55.2425 91.238 48.7825ZM39.641 84.1225C39.788 76.76 33.957 70.4425 29.351 65.1225C24.549 59.565 19.649 54.1025 13.426 50.065C12.299 49.305 13.377 47.5 14.504 48.26C21.315 52.6775 26.656 58.71 31.85 64.79C34.349 67.6875 37.093 70.9175 39.102 74.4325C38.122 71.25 37.583 67.8775 37.338 64.5525C37.191 62.1775 37.142 59.8025 37.191 57.475C30.331 47.025 18.767 39.9475 6.12502 38.475C5.78202 44.6975 5.68402 50.9675 5.97802 57.2375C6.22302 62.89 7.44802 68.1625 10.927 72.8175C17.297 81.4625 28.861 85.2625 39.641 84.1225Z" fill="#436A0F"/>
</svg>
